<?xml version="1.0" encoding="UTF-8"?> <svg xmlns="http://www.w3.org/2000/svg" xmlns:xlink="http://www.w3.org/1999/xlink" xmlns:svgjs="http://svgjs.com/svgjs" width="512" height="512" x="0" y="0" viewBox="0 0 512.001 512.001" style="enable-background:new 0 0 512 512" xml:space="preserve" class=""> <g> <g xmlns="http://www.w3.org/2000/svg"> <path d="m460.194 255.094-13.659-50.809 13.572-50.829c.691-2.589-.051-5.35-1.947-7.243l-37.238-37.17-13.658-50.809c-.696-2.588-2.72-4.608-5.309-5.299l-50.828-13.572-37.239-37.171c-1.897-1.893-4.659-2.632-7.245-1.934l-50.81 13.658-50.828-13.571c-2.587-.69-5.349.05-7.243 1.948l-37.169 37.237-50.81 13.659c-2.588.695-4.607 2.719-5.299 5.308l-13.572 50.829-37.17 37.238c-1.894 1.896-2.631 4.658-1.936 7.246l13.659 50.8-8.412 31.508c-1.068 4.002 1.31 8.112 5.312 9.181 4.002 1.071 8.112-1.31 9.181-5.312l8.931-33.45c.34-1.272.339-2.611-.003-3.882l-13.057-48.559 35.53-35.595c.931-.932 1.599-2.092 1.938-3.363l12.975-48.588 48.568-13.056c1.271-.342 2.431-1.012 3.361-1.944l35.53-35.595 48.586 12.973c1.271.34 2.61.338 3.882-.003l48.569-13.056 35.595 35.531c.932.93 2.092 1.598 3.363 1.938l48.587 12.973 13.056 48.568c.342 1.271 1.013 2.431 1.944 3.361l35.596 35.531-12.974 48.586c-.34 1.272-.339 2.611.003 3.882l13.057 48.569-35.531 35.596c-.93.932-1.598 2.092-1.938 3.363l-12.974 48.586-48.566 13.055c-1.272.342-2.433 1.013-3.363 1.945l-35.53 35.595-48.582-12.981c-1.275-.341-2.615-.34-3.889.003l-48.566 13.065-35.595-35.531c-.933-.93-2.093-1.599-3.364-1.938l-10.164-2.716c-.007-.002-.013-.005-.02-.006-.007-.002-.014-.003-.021-.005l-38.38-10.255-13.057-48.559c-.343-1.272-1.013-2.431-1.945-3.361l-25.29-25.24c-2.933-2.926-7.682-2.921-10.606.011-2.926 2.932-2.921 7.68.011 10.606l23.867 23.82 13.658 50.798c.696 2.587 2.719 4.607 5.307 5.298l35.328 9.44-30.277 112.972c-.71 2.647.082 5.472 2.064 7.365s4.839 2.556 7.452 1.724l48.302-15.354 34.151 37.45c1.439 1.578 3.46 2.446 5.542 2.446.59 0 1.186-.07 1.773-.213 2.664-.648 4.762-2.698 5.471-5.346l29.367-109.597 6.949-1.869 6.58 1.758 29.399 109.708c.709 2.647 2.807 4.697 5.471 5.346.588.143 1.183.213 1.773.213 2.082 0 4.103-.868 5.542-2.446l34.153-37.451 48.303 15.355c2.613.832 5.471.169 7.452-1.724 1.982-1.893 2.774-4.717 2.064-7.365l-12.16-45.38c-1.071-4-5.185-6.374-9.186-5.303-4.001 1.072-6.375 5.185-5.303 9.186l8.611 32.138-39.814-12.657c-2.789-.887-5.841-.07-7.814 2.094l-28.152 30.871-23.613-88.114 27.521 7.353c2.586.691 5.35-.05 7.244-1.948l37.169-37.237.711-.191 9.378 35.01c.897 3.352 3.928 5.562 7.239 5.562.643 0 1.296-.083 1.945-.257 4.001-1.072 6.376-5.184 5.304-9.185l-9.382-35.023 35.614-9.574c2.588-.696 4.607-2.719 5.299-5.308l13.572-50.829 37.171-37.238c1.894-1.896 2.631-4.658 1.936-7.245zm-251.283 234.223-28.149-30.869c-1.974-2.163-5.024-2.98-7.814-2.094l-39.814 12.655 26.731-99.741 1.011.27 37.237 37.17c1.425 1.422 3.338 2.192 5.299 2.192.649 0 1.304-.084 1.947-.257l27.125-7.296z" fill="#41b619" data-original="#000000" style=""></path> <path d="m256.001 62.321c20.851 0 40.932 4.409 59.685 13.104 3.761 1.744 8.217.108 9.959-3.649 1.743-3.758.109-8.217-3.648-9.959-20.746-9.619-42.949-14.496-65.995-14.496-70.964 0-133.31 47.756-151.732 116.171-.007.023-.013.047-.02.071-.021.078-.044.155-.065.232-3.525 13.196-5.313 26.875-5.313 40.656 0 35.934 11.803 69.747 34.131 97.779.015.019.031.037.045.055.022.027.044.055.067.082 30.006 37.633 74.785 59.214 122.886 59.214 86.642 0 157.13-70.488 157.13-157.13 0-46.874-20.706-90.955-56.808-120.94-3.186-2.646-7.915-2.209-10.562.978s-2.209 7.915.978 10.562c32.66 27.126 51.392 67.001 51.392 109.401 0 78.371-63.759 142.13-142.13 142.13-38.084 0-73.867-14.957-100.405-41.52h45.52c4.143 0 7.5-3.358 7.5-7.5v-8.501c6.745.909 11.962 2.642 16.952 6.467 4.604 3.53 10.29 5.474 16.009 5.474h82.312c12.598 0 22.847-10.249 22.847-22.847 0-4.417-1.26-8.546-3.439-12.045 5.842-4.143 9.661-10.958 9.661-18.648 0-4.656-1.4-8.991-3.801-12.607 5.411-4.182 8.902-10.734 8.902-18.086 0-4.635-1.388-8.953-3.77-12.558 5.447-4.179 8.966-10.754 8.966-18.135 0-12.598-10.249-22.847-22.847-22.847h-45.734c5.466-19.88 4.552-40.654-2.721-64.492-2.709-8.88-10.796-14.846-20.125-14.846-5.747 0-11.313 2.391-15.271 6.559-3.958 4.169-6.058 9.853-5.76 15.594 1.373 26.422-10.367 35.184-28.139 48.446-4.464 3.331-9.239 6.899-14.055 10.999-.132-4.026-3.429-7.252-7.488-7.252h-79.56c19.534-56.942 73.471-95.916 134.446-95.916zm-24.372 104.189c18.48-13.792 35.937-26.818 34.148-61.245-.087-1.676.501-3.27 1.657-4.488 1.155-1.217 2.715-1.887 4.393-1.887 2.644 0 5.02 1.736 5.777 4.223 7.492 24.555 7.395 45.173-.306 64.887-.901 2.308-.604 4.912.793 6.958s3.716 3.27 6.193 3.27h56.122c4.327 0 7.847 3.52 7.847 7.847s-3.52 7.847-7.847 7.847h-19.091c-4.143 0-7.5 3.358-7.5 7.5s3.357 7.5 7.5 7.5h13.895c4.326 0 7.847 3.52 7.847 7.846 0 4.327-3.521 7.847-7.847 7.847h-13.895c-4.143 0-7.5 3.358-7.5 7.5s3.357 7.5 7.5 7.5h8.793c4.327 0 7.847 3.52 7.847 7.847s-3.52 7.847-7.847 7.847h-13.896c-4.143 0-7.5 3.358-7.5 7.5s3.357 7.5 7.5 7.5h7.674c4.327 0 7.847 3.52 7.847 7.847s-3.52 7.847-7.847 7.847h-82.312c-2.438 0-4.883-.845-6.883-2.378-8.494-6.514-17.398-8.721-26.078-9.683v-87.794c7.388-7.968 15.322-13.895 23.016-19.638zm-38.013 18.474c0 .007-.001.013-.001.019v97.588c0 .007.001.013.001.019v7.45h-51.069c-18.771-24.785-28.676-54.305-28.676-85.61 0-10.545 1.169-21.018 3.453-31.215h76.292z" fill="#41b619" data-original="#000000" style=""></path> </g> </g> </svg> 