<?xml version="1.0" encoding="UTF-8"?> <svg xmlns="http://www.w3.org/2000/svg" xmlns:xlink="http://www.w3.org/1999/xlink" xmlns:svgjs="http://svgjs.com/svgjs" width="512" height="512" x="0" y="0" viewBox="0 0 512 512" style="enable-background:new 0 0 512 512" xml:space="preserve" class=""> <g> <path xmlns="http://www.w3.org/2000/svg" d="m420.570312 167.714844-36.570312 10.972656v81.480469l36.570312 10.972656zm0 0" fill="#41b619" data-original="#000000" style="" class=""></path> <path xmlns="http://www.w3.org/2000/svg" d="m146.285156 165.082031 18.285156 5.488281v-47.875l-18.285156-7.101562zm0 0" fill="#41b619" data-original="#000000" style="" class=""></path> <path xmlns="http://www.w3.org/2000/svg" d="m420.570312 94.253906-36.570312 14.226563v51.117187l36.570312-10.972656zm0 0" fill="#41b619" data-original="#000000" style="" class=""></path> <path xmlns="http://www.w3.org/2000/svg" d="m292.570312 341.175781v-243.492187c-.03125-7.554688 4.609376-14.335938 11.660157-17.042969l113.316406-44.070313h-323.09375l113.316406 44.070313c7.050781 2.707031 11.691407 9.488281 11.660157 17.042969v243.492187c.03125 7.550781-4.609376 14.335938-11.660157 17.042969l-113.316406 44.066406h323.09375l-113.316406-44.066406c-7.050781-2.707031-11.691407-9.492188-11.660157-17.042969zm0 0" fill="#41b619" data-original="#000000" style="" class=""></path> <path xmlns="http://www.w3.org/2000/svg" d="m201.144531 97.683594-146.289062-56.886719v357.265625l146.289062-56.886719zm-18.289062 224.730468c0 3.769532-2.316407 7.15625-5.832031 8.519532l-36.316407 14.128906-55.09375 21.429688c-1.054687.410156-2.175781.621093-3.308593.621093-5.050782 0-9.144532-4.09375-9.144532-9.144531v-277.082031c0-3.015625 1.492188-5.839844 3.980469-7.542969s5.660156-2.070312 8.472656-.976562l55.09375 21.429687 36.316407 14.089844c3.515624 1.363281 5.832031 4.75 5.832031 8.519531zm0 0" fill="#41b619" data-original="#000000" style="" class=""></path> <path xmlns="http://www.w3.org/2000/svg" d="m91.429688 148.625 36.570312 10.972656v-51.117187l-36.570312-14.226563zm0 0" fill="#41b619" data-original="#000000" style="" class=""></path> <path xmlns="http://www.w3.org/2000/svg" d="m146.285156 254.683594 18.285156-5.484375v-59.539063l-18.285156-5.488281zm0 0" fill="#41b619" data-original="#000000" style="" class=""></path> <path xmlns="http://www.w3.org/2000/svg" d="m91.429688 271.140625 36.570312-10.972656v-81.480469l-36.570312-10.972656zm0 0" fill="#41b619" data-original="#000000" style="" class=""></path> <path xmlns="http://www.w3.org/2000/svg" d="m146.285156 323.265625 18.285156-7.105469v-47.871094l-18.285156 5.484376zm0 0" fill="#41b619" data-original="#000000" style="" class=""></path> <path xmlns="http://www.w3.org/2000/svg" d="m365.714844 115.59375-18.285156 7.101562v47.875l18.285156-5.488281zm0 0" fill="#41b619" data-original="#000000" style="" class=""></path> <path xmlns="http://www.w3.org/2000/svg" d="m484.570312 0h-457.140624c-5.050782 0-9.144532 4.09375-9.144532 9.144531v429.710938h475.429688v-429.710938c0-5.050781-4.09375-9.144531-9.144532-9.144531zm-9.140624 411.429688c-.023438 1.089843-.238282 2.167968-.640626 3.179687-.082031.210937-.148437.414063-.238281.613281-.417969.925782-.988281 1.773438-1.691406 2.503906-.140625.136719-.285156.265626-.4375.386719-.304687.308594-.632813.597657-.980469.859375-.335937.191406-.683594.363282-1.042968.511719-.308594.15625-.601563.320313-.914063.445313-1.019531.40625-2.101563.621093-3.199219.640624h-420.570312c-1.089844-.019531-2.167969-.238281-3.183594-.640624-.328125-.125-.621094-.289063-.914062-.445313-.359376-.148437-.707032-.320313-1.042969-.511719-.34375-.261718-.671875-.550781-.976563-.859375-.152344-.121093-.300781-.25-.4375-.386719-.703125-.730468-1.277344-1.578124-1.691406-2.503906-.09375-.199218-.15625-.402344-.238281-.613281-.410157-1.011719-.632813-2.089844-.660157-3.179687v-384c.023438-1.089844.238282-2.167969.640626-3.183594.082031-.210938.148437-.410156.238281-.613282.417969-.925781.988281-1.769531 1.691406-2.503906.140625-.136718.285156-.261718.4375-.382812.304687-.3125.632813-.597656.980469-.859375.40625-.261719.832031-.488281 1.269531-.6875.175781-.074219.3125-.171875.484375-.246094.980469-.378906 2.019531-.589844 3.074219-.621094.109375.019531.207031-.046875.328125-.046875h420.570312c.101563 0 .191406.054688.292969.066406 1.070313.015626 2.128906.226563 3.128906.621094.152344.0625.28125.164063.4375.226563.871094.328125 1.648438.859375 2.277344 1.546875.152344.121094.296875.246094.4375.382812.703125.734375 1.273437 1.578125 1.691406 2.503906.089844.203126.15625.402344.238281.613282.402344 1.015625.617188 2.09375.640626 3.183594zm0 0" fill="#41b619" data-original="#000000" style="" class=""></path> <path xmlns="http://www.w3.org/2000/svg" d="m310.855469 341.175781 146.289062 56.886719v-357.265625l-146.289062 56.886719zm18.289062-224.730469c0-3.773437 2.316407-7.15625 5.832031-8.523437l36.316407-14.125 55.09375-21.429687c2.8125-1.101563 5.992187-.738282 8.484375.964843 2.496094 1.707031 3.988281 4.53125 3.984375 7.554688v277.082031c0 3.019531-1.488281 5.839844-3.976563 7.546875-2.492187 1.703125-5.660156 2.066406-8.472656.976563l-55.097656-21.429688-36.332032-14.089844c-3.527343-1.371094-5.847656-4.773437-5.832031-8.558594zm0 0" fill="#41b619" data-original="#000000" style="" class=""></path> <path xmlns="http://www.w3.org/2000/svg" d="m365.714844 273.773438-18.285156-5.484376v47.871094l18.285156 7.105469zm0 0" fill="#41b619" data-original="#000000" style="" class=""></path> <path xmlns="http://www.w3.org/2000/svg" d="m420.570312 290.230469-36.570312-10.972657v51.121094l36.570312 14.222656zm0 0" fill="#41b619" data-original="#000000" style="" class=""></path> <path xmlns="http://www.w3.org/2000/svg" d="m512 493.714844h-438.855469c-5.050781 0-9.144531-4.09375-9.144531-9.144532 0-5.046874 4.09375-9.140624 9.144531-9.140624h433.207031l-9.144531-18.285157h-482.414062l-9.144531 18.285157h30.921874c5.050782 0 9.144532 4.09375 9.144532 9.140624 0 5.050782-4.09375 9.144532-9.144532 9.144532h-36.570312v18.285156h512zm0 0" fill="#41b619" data-original="#000000" style="" class=""></path> <path xmlns="http://www.w3.org/2000/svg" d="m365.714844 184.171875-18.285156 5.488281v59.539063l18.285156 5.484375zm0 0" fill="#41b619" data-original="#000000" style="" class=""></path> <path xmlns="http://www.w3.org/2000/svg" d="m91.429688 344.601562 36.570312-14.222656v-51.121094l-36.570312 10.972657zm0 0" fill="#41b619" data-original="#000000" style="" class=""></path> </g> </svg> 