<?xml version="1.0" encoding="UTF-8"?> <!-- Creator: CorelDRAW 2019 (64-Bit) --> <svg xmlns="http://www.w3.org/2000/svg" xmlns:xlink="http://www.w3.org/1999/xlink" xmlns:xodm="http://www.corel.com/coreldraw/odm/2003" xml:space="preserve" width="56.6207mm" height="56.6125mm" style="shape-rendering:geometricPrecision; text-rendering:geometricPrecision; image-rendering:optimizeQuality; fill-rule:evenodd; clip-rule:evenodd" viewBox="0 0 38.0366 38.031"> <defs> <style type="text/css"> <![CDATA[ .fil0 {fill:#65A120} .fil2 {fill:#65A120} .fil1 {fill:#FEFFFE} ]]> </style> </defs> <g id="Слой_x0020_1"> <metadata id="CorelCorpID_0Corel-Layer"></metadata> <g id="_551855128272"> <path class="fil0" d="M11.2886 26.9364c0.2561,-1.1815 1.1766,-2.7826 0.8276,-3.3291 -0.5829,-0.9129 -1.0303,-1.8014 -1.2703,-3.095 -0.5085,-2.742 0.4177,-5.1771 1.7595,-6.7828 5.1914,-6.2127 14.9652,-2.2458 14.7355,5.517 -0.08,2.7034 -1.4825,4.8627 -2.8196,5.9864 -2.1776,1.8299 -5.1914,2.7613 -8.4194,1.5512 -2.1271,-0.7975 -0.8204,-1.1107 -3.1553,-0.3585 -0.5005,0.1612 -1.1373,0.4017 -1.6579,0.5109zm-11.2886 -7.9391c0,3.7686 1.2846,7.8716 3.4247,10.8257 0.7299,1.0075 0.7055,1.0213 1.5804,1.9617 0.7949,0.8545 1.1949,1.3243 2.2422,2.1236 4.5334,3.4597 10.3766,4.9952 15.9828,3.624 2.0751,-0.5077 3.4759,-1.0887 5.1602,-2.0063 0.8003,-0.4359 2.4067,-1.5369 3.1389,-2.2154 0.4545,-0.4212 0.9381,-0.8252 1.3253,-1.3106 0.2987,-0.3744 0.7248,-0.7423 1.2598,-1.4585 0.5058,-0.6771 0.987,-1.3609 1.4138,-2.1282 2.4052,-4.3231 3.2435,-9.6144 1.7967,-14.5331 -0.3044,-1.0352 -0.5709,-1.7198 -0.9631,-2.6613 -2.2848,-5.4864 -8.0239,-9.9468 -14.0269,-10.9321 -4.8561,-0.797 -9.234,0.0655 -13.3912,2.613 -0.2983,0.1829 -0.4747,0.2788 -0.7543,0.4813 -1.9998,1.4488 -3.2814,2.7507 -4.7427,4.7302l-0.9216 1.4672c-1.2629,2.3234 -2.0591,4.5071 -2.3675,7.1877 -0.0724,0.6282 -0.1577,1.5491 -0.1577,2.2312z"></path> <path class="fil1" d="M15.6383 14.5081c1.0921,-0.2062 1.0372,0.3468 1.3742,1.1509 0.2821,0.6732 0.7488,1.2685 0.2494,1.8176 -0.6768,0.7443 -0.7538,0.7003 -0.075,1.6328 0.3639,0.4999 0.8368,0.988 1.299,1.3368 2.8092,2.1201 2.1821,-0.1141 3.1172,-0.2711 0.3708,-0.0621 1.4592,0.587 1.8246,0.7615 0.4631,0.2214 0.6401,0.1331 0.6155,0.6877 -0.016,0.3612 -0.1119,0.7664 -0.2916,1.0256 -1.8702,2.6975 -7.7238,-0.7585 -9.2891,-4.6065 -0.6176,-1.5185 -0.0251,-3.3086 1.1759,-3.5354zm-4.3497 12.4282c0.5207,-0.1092 1.1574,-0.3497 1.6579,-0.5109 2.335,-0.7521 1.0282,-0.4389 3.1553,0.3585 3.228,1.2101 6.2418,0.2787 8.4194,-1.5512 1.3371,-1.1236 2.7396,-3.2829 2.8196,-5.9864 0.2297,-7.7629 -9.5441,-11.7298 -14.7355,-5.517 -1.3417,1.6057 -2.2679,4.0408 -1.7595,6.7828 0.24,1.2936 0.6874,2.1821 1.2703,3.095 0.3489,0.5465 -0.5715,2.1477 -0.8276,3.3291z"></path> <path class="fil2" d="M15.6383 14.5081c-1.201,0.2267 -1.7935,2.0169 -1.1759,3.5354 1.5653,3.848 7.4189,7.304 9.2891,4.6065 0.1797,-0.2592 0.2756,-0.6644 0.2916,-1.0256 0.0246,-0.5546 -0.1524,-0.4663 -0.6155,-0.6877 -0.3654,-0.1745 -1.4538,-0.8237 -1.8246,-0.7615 -0.935,0.1569 -0.3079,2.3912 -3.1172,0.2711 -0.4622,-0.3489 -0.935,-0.8369 -1.299,-1.3368 -0.6788,-0.9324 -0.6018,-0.8884 0.075,-1.6328 0.4993,-0.5492 0.0326,-1.1444 -0.2494,-1.8176 -0.337,-0.8041 -0.2821,-1.3571 -1.3742,-1.1509z"></path> </g> </g> </svg> 